<?xml version="1.0" encoding="UTF-8"?>
<!DOCTYPE svg PUBLIC "-//W3C//DTD SVG 1.1//EN" "http://www.w3.org/Graphics/SVG/1.1/DTD/svg11.dtd">
<!-- Creator: CorelDRAW (Evaluation Version) -->
<svg xmlns="http://www.w3.org/2000/svg" xml:space="preserve" width="81mm" height="81mm" version="1.1" style="shape-rendering:geometricPrecision; text-rendering:geometricPrecision; image-rendering:optimizeQuality; fill-rule:evenodd; clip-rule:evenodd"
viewBox="0 0 212.17 212.17"
 xmlns:xlink="http://www.w3.org/1999/xlink"
 xmlns:xodm="http://www.corel.com/coreldraw/odm/2003">
 <defs>
  <style type="text/css">
   <![CDATA[
    .str2 {stroke:#D2D3D5;stroke-width:2.62;stroke-miterlimit:22.9256}
    .str0 {stroke:#E6E7E8;stroke-width:0.65;stroke-miterlimit:22.9256}
    .str1 {stroke:#D2D3D5;stroke-width:2.62;stroke-linecap:round;stroke-linejoin:round;stroke-miterlimit:10}
    .fil0 {fill:none}
    .fil1 {fill:none;fill-rule:nonzero}
    .fil3 {fill:#9671BD}
    .fil2 {fill:url(#id0);fill-rule:nonzero}
   ]]>
  </style>
  <linearGradient id="id0" gradientUnits="userSpaceOnUse" x1="96.52" y1="131.63" x2="172.73" y2="60.6">
   <stop offset="0" style="stop-opacity:1; stop-color:#77B5B6"/>
   <stop offset="1" style="stop-opacity:1; stop-color:#9671BD"/>
  </linearGradient>
 </defs>
 <g id="Layer_x0020_1">
  <metadata id="CorelCorpID_0Corel-Layer"/>
  <line class="fil0 str0" x1="132.36" y1="4.63" x2="132.36" y2= "207.54" />
  <line class="fil0 str0" x1="106.16" y1="1.31" x2="106.16" y2= "210.86" />
  <line class="fil0 str0" x1="27.58" y1="36.7" x2="27.58" y2= "175.48" />
  <line class="fil0 str0" x1="158.55" y1="16.67" x2="158.55" y2= "196.8" />
  <line class="fil0 str0" x1="184.75" y1="36.87" x2="184.75" y2= "175.31" />
  <line class="fil0 str0" x1="53.77" y1="15.28" x2="53.77" y2= "196.89" />
  <line class="fil0 str0" x1="79.97" y1="4.59" x2="79.97" y2= "207.58" />
  <line class="fil0 str0" x1="199.43" y1="153.74" x2="12.75" y2= "153.74" />
  <line class="fil0 str0" x1="135.24" y1="206.13" x2="74.86" y2= "206.13" />
  <line class="fil0 str0" x1="180.41" y1="179.94" x2="31.76" y2= "179.94" />
  <line class="fil0 str0" x1="210.83" y1="101.35" x2="1.34" y2= "101.35" />
  <line class="fil0 str0" x1="208.67" y1="127.55" x2="3.51" y2= "127.55" />
  <line class="fil0 str0" x1="206.68" y1="75.16" x2="5.95" y2= "75.16" />
  <line class="fil0 str0" x1="193.94" y1="48.97" x2="18.24" y2= "48.97" />
  <line class="fil0 str0" x1="169.63" y1="22.77" x2="41.15" y2= "22.77" />
  <polyline class="fil1 str1" points="106.11,210.86 106.11,210.78 106.11,210.64 106.11,210.5 106.11,210.35 106.11,210.21 106.11,210.07 106.11,209.93 106.11,209.78 106.11,209.64 106.11,209.5 106.11,209.36 106.11,209.22 106.11,209.08 106.11,208.93 106.11,208.79 106.11,208.65 106.11,208.51 106.11,208.37 106.11,208.23 106.11,208.08 106.11,207.94 106.11,207.8 106.11,207.66 106.11,207.51 106.11,207.37 106.11,207.23 106.11,207.09 106.11,206.95 106.11,206.81 106.11,206.67 106.11,206.52 106.11,206.38 106.11,206.24 106.11,206.1 106.11,205.96 106.11,205.82 106.11,205.67 106.11,205.53 106.11,205.39 106.11,205.25 106.11,205.1 106.11,204.96 106.11,204.82 106.11,204.68 106.11,204.54 106.11,204.4 106.11,204.25 106.11,204.11 106.11,203.97 106.11,203.83 106.11,203.69 106.11,203.55 106.11,203.4 106.11,203.26 106.11,203.12 106.11,202.98 106.11,202.84 106.11,202.69 106.11,202.55 106.11,202.41 106.11,202.27 106.11,202.13 106.11,201.99 106.11,201.84 106.11,201.7 106.11,201.56 106.11,201.42 106.11,201.28 106.11,201.14 106.11,200.99 106.11,200.85 106.11,200.71 106.11,200.57 106.11,200.43 106.11,200.29 106.11,200.14 106.11,200 106.11,199.86 106.11,199.72 106.11,199.57 106.11,199.43 106.11,199.29 106.11,199.15 106.11,199.01 106.11,198.87 106.11,198.72 106.11,198.58 106.11,198.44 106.11,198.3 106.11,198.16 106.11,198.02 106.11,197.87 106.11,197.73 106.11,197.59 106.11,197.45 106.11,197.31 106.11,197.16 106.11,197.02 106.11,196.88 106.11,196.74 106.11,196.6 106.11,196.46 106.11,196.31 106.11,196.17 106.11,196.03 106.11,195.89 106.11,195.75 106.11,195.61 106.11,195.46 106.11,195.32 106.11,195.18 106.11,195.04 106.11,194.89 106.11,194.75 106.11,194.61 106.11,194.47 106.11,194.33 106.11,194.19 106.11,194.04 106.11,193.9 106.11,193.76 106.11,193.62 106.11,193.48 106.11,193.34 106.11,193.19 106.11,193.05 106.11,192.91 106.11,192.77 106.11,192.63 106.11,192.49 106.11,192.34 106.11,192.2 106.11,192.06 106.11,191.92 106.11,191.78 106.11,191.63 106.11,191.49 106.11,191.35 106.11,191.21 106.11,191.07 106.11,190.93 106.11,190.78 106.11,190.64 106.11,190.5 106.11,190.36 106.11,190.22 106.12,190.08 106.12,189.93 106.12,189.79 106.12,189.65 106.12,189.51 106.12,189.36 106.12,189.22 106.12,189.08 106.12,188.94 106.12,188.8 106.12,188.66 106.12,188.51 106.12,188.37 106.12,188.23 106.12,188.09 106.12,187.95 106.12,187.81 106.12,187.67 106.12,187.52 106.12,187.38 106.12,187.24 106.12,187.1 106.12,186.95 106.12,186.81 106.12,186.67 106.12,186.53 106.12,186.39 106.12,186.25 106.12,186.1 106.12,185.96 106.12,185.82 106.12,185.68 106.12,185.54 106.12,185.4 106.12,185.25 106.12,185.11 106.12,184.97 106.12,184.83 106.12,184.69 106.12,184.55 106.12,184.4 106.12,184.26 106.12,184.12 106.12,183.98 106.12,183.83 106.12,183.69 106.12,183.55 106.12,183.41 106.12,183.27 106.12,183.13 106.12,182.99 106.12,182.84 106.12,182.7 106.12,182.56 106.12,182.42 106.12,182.28 106.12,182.14 106.12,181.99 106.12,181.85 106.12,181.71 106.12,181.57 106.12,181.42 106.12,181.28 106.12,181.14 106.12,181 106.12,180.86 106.12,180.72 106.12,180.57 106.12,180.43 106.12,180.29 106.12,180.15 106.12,180.01 106.12,179.87 106.12,179.72 106.12,179.58 106.12,179.44 106.12,179.3 106.12,179.15 106.12,179.01 106.12,178.87 106.12,178.73 106.13,178.59 106.13,178.45 106.13,178.31 106.13,178.16 106.13,178.02 106.13,177.88 106.13,177.74 106.13,177.6 106.13,177.46 106.13,177.31 106.13,177.17 106.13,177.03 106.13,176.89 106.13,176.74 106.13,176.6 106.13,176.46 106.13,176.32 106.13,176.18 106.13,176.04 106.13,175.89 106.13,175.75 106.13,175.61 106.13,175.47 106.13,175.33 106.13,175.19 106.13,175.04 106.13,174.9 106.13,174.76 106.13,174.62 106.13,174.48 106.13,174.34 106.14,174.19 106.14,174.05 106.14,173.91 106.14,173.77 106.14,173.63 106.14,173.48 106.14,173.34 106.14,173.2 106.14,173.06 106.14,172.92 106.14,172.78 106.14,172.63 106.14,172.49 106.14,172.35 106.14,172.21 106.14,172.07 106.14,171.93 106.14,171.78 106.14,171.64 106.14,171.5 106.14,171.36 106.14,171.21 106.14,171.07 106.14,170.93 106.14,170.79 106.14,170.65 106.14,170.51 106.14,170.36 106.14,170.22 106.14,170.08 106.14,169.94 106.14,169.8 106.14,169.66 106.14,169.51 106.14,169.37 106.15,169.23 106.15,169.09 106.15,168.95 106.15,168.8 106.15,168.66 106.15,168.52 106.15,168.38 106.15,168.24 106.15,168.1 106.15,167.95 106.15,167.81 106.15,167.67 106.15,167.53 106.15,167.39 106.15,167.25 106.15,167.1 106.15,166.96 106.15,166.82 106.15,166.68 106.15,166.54 106.15,166.39 106.15,166.25 106.15,166.11 106.15,165.97 106.15,165.83 106.16,165.68 106.16,165.54 106.16,165.4 106.16,165.26 106.16,165.12 106.16,164.98 106.16,164.83 106.16,164.69 106.16,164.55 106.16,164.41 106.16,164.27 106.16,164.13 106.16,163.99 106.16,163.84 106.16,163.7 106.16,163.56 106.16,163.42 106.16,163.27 106.16,163.13 106.16,162.99 106.17,162.85 106.17,162.71 106.17,162.57 106.17,162.42 106.17,162.28 106.17,162.14 106.17,162 106.17,161.86 106.17,161.72 106.17,161.57 106.17,161.43 106.17,161.29 106.17,161.15 106.17,161 106.17,160.86 106.17,160.72 106.17,160.58 106.18,160.44 106.18,160.3 106.18,160.15 106.18,160.01 106.18,159.87 106.18,159.73 106.18,159.59 106.18,159.45 106.18,159.31 106.18,159.16 106.18,159.02 106.18,158.88 106.18,158.74 106.18,158.59 106.19,158.45 106.19,158.31 106.19,158.17 106.19,158.03 106.19,157.89 106.19,157.74 106.19,157.6 106.19,157.46 106.19,157.32 106.19,157.18 106.19,157.04 106.19,156.89 106.19,156.75 106.2,156.61 106.2,156.47 106.2,156.33 106.2,156.19 106.2,156.04 106.2,155.9 106.2,155.76 106.2,155.62 106.2,155.47 106.2,155.33 106.2,155.19 106.21,155.05 106.21,154.91 106.21,154.77 106.21,154.63 106.21,154.48 106.21,154.34 106.21,154.2 106.21,154.06 106.21,153.92 106.21,153.78 106.22,153.63 106.22,153.49 106.22,153.35 106.22,153.21 106.22,153.06 106.22,152.92 106.22,152.78 106.22,152.64 106.22,152.5 106.23,152.36 106.23,152.21 106.23,152.07 106.23,151.93 106.23,151.79 106.23,151.65 106.23,151.51 106.23,151.36 106.23,151.22 106.24,151.08 106.24,150.94 106.24,150.8 106.24,150.65 106.24,150.51 106.24,150.37 106.24,150.23 106.25,150.09 106.25,149.95 106.25,149.8 106.25,149.66 106.25,149.52 106.25,149.38 106.25,149.24 106.26,149.1 106.26,148.95 106.26,148.81 106.26,148.67 106.26,148.53 106.27,148.39 106.27,148.25 106.27,148.1 106.27,147.96 106.27,147.82 106.27,147.68 106.28,147.53 106.28,147.39 106.28,147.25 106.28,147.11 106.28,146.97 106.28,146.83 106.29,146.68 106.29,146.54 106.29,146.4 106.29,146.26 106.29,146.12 106.29,145.98 106.3,145.83 106.3,145.69 106.3,145.55 106.3,145.41 106.3,145.27 106.31,145.12 106.31,144.98 106.31,144.84 106.31,144.7 106.31,144.56 106.31,144.42 106.32,144.27 106.32,144.13 106.32,143.99 106.32,143.85 106.33,143.71 106.33,143.57 106.33,143.42 106.33,143.28 106.33,143.14 106.34,143 106.34,142.85 106.34,142.71 106.34,142.57 106.35,142.43 106.35,142.29 106.35,142.15 106.35,142 106.35,141.86 106.36,141.72 106.36,141.58 106.36,141.44 106.36,141.3 106.37,141.15 106.37,141.01 106.37,140.87 106.37,140.73 106.38,140.59 106.38,140.44 106.38,140.3 106.39,140.16 106.39,140.02 106.39,139.88 106.39,139.74 106.4,139.59 106.4,139.45 106.41,139.31 106.41,139.17 106.41,139.03 106.41,138.89 106.42,138.74 106.42,138.6 106.42,138.46 106.43,138.32 106.43,138.18 106.43,138.04 106.44,137.89 106.44,137.75 106.44,137.61 106.45,137.47 106.45,137.32 106.45,137.18 106.46,137.04 106.46,136.9 106.46,136.76 106.47,136.62 106.47,136.47 106.47,136.33 106.48,136.19 106.48,136.05 106.48,135.91 106.49,135.77 106.49,135.63 106.49,135.48 106.5,135.34 106.5,135.2 106.51,135.06 106.51,134.91 106.51,134.77 106.52,134.63 106.52,134.49 106.53,134.35 106.53,134.21 106.54,134.06 106.54,133.92 106.55,133.78 106.55,133.64 106.55,133.5 106.56,133.36 106.56,133.21 106.57,133.07 106.57,132.93 106.58,132.79 106.58,132.64 106.59,132.5 106.59,132.36 106.6,132.22 106.6,132.08 106.61,131.94 106.61,131.79 106.62,131.65 106.62,131.51 106.63,131.37 106.63,131.23 106.64,131.09 106.64,130.95 106.65,130.8 106.65,130.66 106.66,130.52 106.67,130.38 106.67,130.24 106.68,130.09 106.68,129.95 106.69,129.81 106.69,129.67 106.7,129.53 106.7,129.38 106.71,129.24 106.72,129.1 106.72,128.96 106.73,128.82 106.73,128.68 106.74,128.53 106.75,128.39 106.75,128.25 106.76,128.11 106.77,127.97 106.77,127.83 106.78,127.68 106.79,127.54 106.79,127.4 106.8,127.26 106.81,127.11 106.82,126.97 106.82,126.83 106.83,126.69 106.84,126.55 106.84,126.41 106.85,126.27 106.86,126.12 106.87,125.98 106.87,125.84 106.88,125.7 106.89,125.56 106.9,125.42 106.9,125.27 106.91,125.13 106.92,124.99 106.93,124.85 106.94,124.7 106.95,124.56 106.95,124.42 106.96,124.28 106.97,124.14 106.98,124 106.99,123.85 107,123.71 107.01,123.57 107.01,123.43 107.02,123.29 107.03,123.15 107.04,123 107.05,122.86 107.06,122.72 107.07,122.58 107.08,122.44 107.09,122.29 107.1,122.15 107.11,122.01 107.12,121.87 107.13,121.73 107.14,121.59 107.15,121.44 107.16,121.3 107.17,121.16 107.18,121.02 107.19,120.88 107.21,120.74 107.22,120.59 107.23,120.45 107.24,120.31 107.25,120.17 107.26,120.03 107.27,119.89 107.28,119.74 107.3,119.6 107.31,119.46 107.32,119.32 107.33,119.17 107.35,119.03 107.36,118.89 107.37,118.75 107.38,118.61 107.39,118.47 107.41,118.32 107.42,118.18 107.43,118.04 107.45,117.9 107.46,117.76 107.48,117.62 107.49,117.47 107.5,117.33 107.52,117.19 107.53,117.05 107.54,116.91 107.56,116.76 107.57,116.62 107.59,116.48 107.6,116.34 107.62,116.2 107.63,116.06 107.65,115.91 107.66,115.77 107.68,115.63 107.69,115.49 107.71,115.35 107.73,115.21 107.75,115.06 107.76,114.92 107.78,114.78 107.79,114.64 107.81,114.49 107.83,114.35 107.84,114.21 107.86,114.07 107.88,113.93 107.9,113.79 107.92,113.64 107.93,113.5 107.95,113.36 107.97,113.22 107.99,113.08 108.01,112.94 108.03,112.79 108.05,112.65 108.07,112.51 108.09,112.37 108.1,112.23 108.12,112.09 108.15,111.95 108.17,111.8 108.19,111.66 108.21,111.52 108.23,111.38 108.25,111.23 108.27,111.09 108.29,110.95 108.32,110.81 108.34,110.67 108.36,110.53 108.38,110.38 108.4,110.24 108.43,110.1 108.45,109.96 108.48,109.82 108.5,109.68 108.52,109.53 108.55,109.39 108.57,109.25 108.6,109.11 108.62,108.96 108.65,108.82 108.67,108.68 108.7,108.54 108.73,108.4 108.75,108.26 108.78,108.11 108.8,107.97 108.83,107.83 108.86,107.69 108.89,107.55 108.91,107.41 108.94,107.27 108.97,107.12 109,106.98 109.03,106.84 109.06,106.7 109.09,106.55 109.12,106.41 109.15,106.27 109.18,106.13 109.21,105.99 109.24,105.85 109.27,105.7 109.3,105.56 109.33,105.42 109.37,105.28 109.4,105.14 109.43,105 109.47,104.85 109.5,104.71 109.54,104.57 109.57,104.43 109.6,104.29 109.64,104.14 109.68,104 109.71,103.86 109.75,103.72 109.79,103.58 109.82,103.43 109.86,103.29 109.9,103.15 109.93,103.01 109.97,102.87 110.01,102.73 110.05,102.59 110.09,102.44 110.13,102.3 110.17,102.16 110.21,102.02 110.25,101.88 110.3,101.74 110.34,101.59 110.38,101.45 110.42,101.31 110.47,101.17 110.51,101.02 110.55,100.88 110.6,100.74 110.64,100.6 110.69,100.46 110.74,100.32 110.78,100.17 110.83,100.03 110.88,99.89 110.92,99.75 110.97,99.61 111.02,99.47 111.07,99.32 111.12,99.18 111.17,99.04 111.22,98.9 111.27,98.75 111.32,98.61 111.38,98.47 111.43,98.33 111.48,98.19 111.54,98.05 111.59,97.91 111.65,97.76 111.7,97.62 111.76,97.48 111.82,97.34 111.87,97.2 111.93,97.06 111.99,96.91 112.05,96.77 112.11,96.63 112.17,96.49 112.23,96.34 112.29,96.2 112.35,96.06 112.42,95.92 112.48,95.78 112.54,95.64 112.61,95.49 112.67,95.35 112.74,95.21 112.81,95.07 112.87,94.93 112.94,94.79 113.01,94.64 113.08,94.5 113.15,94.36 113.22,94.22 113.29,94.08 113.36,93.94 113.44,93.79 113.51,93.65 113.59,93.51 113.66,93.37 113.74,93.23 113.81,93.08 113.89,92.94 113.97,92.8 114.05,92.66 114.13,92.52 114.21,92.38 114.29,92.23 114.37,92.09 114.45,91.95 114.54,91.81 114.62,91.67 114.71,91.53 114.8,91.38 114.88,91.24 114.97,91.1 115.06,90.96 115.15,90.81 115.24,90.67 115.33,90.53 115.43,90.39 115.52,90.25 115.61,90.11 115.71,89.96 115.81,89.82 115.9,89.68 116,89.54 116.1,89.4 116.2,89.26 116.3,89.11 116.41,88.97 116.51,88.83 116.61,88.69 116.72,88.55 116.82,88.4 116.93,88.26 117.04,88.12 117.15,87.98 117.26,87.84 117.37,87.7 117.49,87.55 117.6,87.41 117.72,87.27 117.84,87.13 117.95,86.99 118.07,86.85 118.19,86.7 118.31,86.56 118.44,86.42 118.56,86.28 118.68,86.14 118.81,86 118.94,85.85 119.07,85.71 119.2,85.57 119.33,85.43 119.46,85.28 119.6,85.14 119.73,85 119.87,84.86 120.01,84.72 120.15,84.58 120.29,84.43 120.43,84.29 120.57,84.15 120.72,84.01 120.87,83.87 121.01,83.73 121.16,83.59 121.31,83.44 121.47,83.3 121.62,83.16 121.78,83.02 121.94,82.87 122.1,82.73 122.26,82.59 122.42,82.45 122.58,82.31 122.75,82.17 122.91,82.02 123.09,81.88 123.26,81.74 123.43,81.6 123.6,81.46 123.78,81.32 123.95,81.17 124.13,81.03 124.32,80.89 124.5,80.75 124.68,80.6 124.87,80.46 125.06,80.32 125.25,80.18 125.44,80.04 125.64,79.9 125.83,79.75 126.03,79.61 126.23,79.47 126.43,79.33 126.64,79.19 126.84,79.05 127.05,78.91 127.26,78.76 127.47,78.62 127.69,78.48 127.9,78.34 128.13,78.19 128.35,78.05 128.57,77.91 128.8,77.77 129.02,77.63 129.26,77.49 129.49,77.34 129.72,77.2 129.96,77.06 130.2,76.92 130.44,76.78 130.69,76.64 130.93,76.49 131.18,76.35 131.43,76.21 131.69,76.07 131.95,75.93 132.2,75.79 132.47,75.64 132.73,75.5 133,75.36 133.27,75.22 133.54,75.07 133.82,74.93 134.1,74.79 134.38,74.65 134.66,74.51 134.95,74.37 135.24,74.23 135.53,74.08 135.83,73.94 136.13,73.8 136.43,73.66 136.73,73.52 137.04,73.38 137.35,73.23 137.67,73.09 137.98,72.95 138.3,72.81 138.63,72.66 138.96,72.52 139.28,72.38 139.62,72.24 139.95,72.1 140.3,71.96 140.64,71.81 140.99,71.67 141.33,71.53 141.69,71.39 142.05,71.25 142.41,71.11 142.77,70.96 143.14,70.82 143.52,70.68 143.89,70.54 144.27,70.39 144.65,70.25 145.04,70.11 145.43,69.97 145.83,69.83 146.23,69.69 146.63,69.55 147.04,69.4 147.45,69.26 147.86,69.12 148.28,68.98 148.71,68.84 149.13,68.7 149.57,68.55 150,68.41 150.45,68.27 150.89,68.13 151.34,67.99 151.8,67.84 152.26,67.7 152.72,67.56 153.19,67.42 153.66,67.28 154.14,67.13 154.62,66.99 155.11,66.85 155.6,66.71 156.1,66.57 156.6,66.43 157.11,66.28 157.62,66.14 158.14,66 158.66,65.86 159.19,65.72 159.72,65.58 160.26,65.44 160.81,65.29 161.35,65.15 161.91,65.01 162.47,64.87 163.04,64.72 163.61,64.58 164.19,64.44 164.77,64.3 165.36,64.16 165.96,64.02 166.56,63.87 167.17,63.73 167.78,63.59 168.4,63.45 169.02,63.31 169.66,63.17 170.3,63.02 170.94,62.88 171.59,62.74 172.25,62.6 172.92,62.45 173.59,62.31 174.26,62.17 174.95,62.03 175.64,61.89 176.34,61.75 177.05,61.6 177.76,61.46 178.48,61.32 179.21,61.18 179.94,61.04 180.68,60.9 181.44,60.76 182.19,60.61 182.96,60.47 183.73,60.33 184.51,60.19 185.3,60.04 186.09,59.9 186.9,59.76 187.71,59.62 188.53,59.48 189.36,59.34 190.19,59.19 191.04,59.05 191.89,58.91 192.75,58.77 193.62,58.63 194.5,58.49 195.39,58.34 196.29,58.2 197.2,58.06 198.11,57.92 199.04,57.78 "/>
  <polyline class="fil1 str1" points="104.28,126.64 104.42,126.63 104.56,126.62 104.7,126.61 104.84,126.6 104.98,126.59 105.13,126.58 105.27,126.57 105.41,126.56 105.55,126.55 105.69,126.54 105.83,126.53 105.97,126.52 106.12,126.51 106.26,126.5 106.4,126.49 106.54,126.48 106.69,126.47 106.83,126.45 106.97,126.44 107.11,126.43 107.25,126.42 107.39,126.41 107.54,126.4 107.68,126.39 107.82,126.38 107.96,126.36 108.1,126.35 108.24,126.34 108.39,126.33 108.53,126.31 108.67,126.3 108.81,126.29 108.96,126.28 109.1,126.27 109.24,126.25 109.38,126.24 109.52,126.23 109.66,126.21 109.81,126.2 109.95,126.18 110.09,126.17 110.23,126.16 110.37,126.14 110.51,126.13 110.65,126.12 110.8,126.1 110.94,126.09 111.08,126.07 111.22,126.06 111.36,126.04 111.5,126.03 111.65,126.01 111.79,126 111.93,125.98 112.07,125.97 112.22,125.95 112.36,125.93 112.5,125.91 112.64,125.9 112.78,125.88 112.92,125.87 113.07,125.85 113.21,125.83 113.35,125.82 113.49,125.8 113.63,125.78 113.77,125.76 113.92,125.74 114.06,125.73 114.2,125.71 114.34,125.69 114.49,125.67 114.63,125.65 114.77,125.63 114.91,125.61 115.05,125.59 115.19,125.57 115.33,125.56 115.48,125.54 115.62,125.51 115.76,125.49 115.9,125.47 116.04,125.45 116.18,125.43 116.33,125.41 116.47,125.39 116.61,125.37 116.75,125.34 116.9,125.32 117.04,125.3 117.18,125.28 117.32,125.25 117.46,125.23 117.6,125.21 117.75,125.18 117.89,125.16 118.03,125.14 118.17,125.11 118.31,125.09 118.45,125.06 118.6,125.04 118.74,125.01 118.88,124.99 119.02,124.96 119.17,124.93 119.31,124.91 119.45,124.88 119.59,124.86 119.73,124.83 119.87,124.8 120.01,124.77 120.16,124.75 120.3,124.72 120.44,124.69 120.58,124.66 120.72,124.63 120.86,124.6 121.01,124.57 121.15,124.54 121.29,124.51 121.43,124.48 121.57,124.45 121.71,124.42 121.86,124.39 122,124.36 122.14,124.33 122.28,124.29 122.43,124.26 122.57,124.23 122.71,124.19 122.85,124.16 122.99,124.12 123.13,124.09 123.28,124.06 123.42,124.02 123.56,123.98 123.7,123.95 123.84,123.91 123.98,123.87 124.13,123.84 124.27,123.8 124.41,123.76 124.55,123.73 124.69,123.69 124.84,123.65 124.98,123.61 125.12,123.57 125.26,123.53 125.4,123.49 125.54,123.45 125.69,123.41 125.83,123.36 125.97,123.32 126.11,123.28 126.25,123.24 126.39,123.19 126.54,123.15 126.68,123.11 126.82,123.06 126.96,123.02 127.11,122.97 127.25,122.92 127.39,122.88 127.53,122.83 127.67,122.78 127.81,122.74 127.96,122.69 128.1,122.64 128.24,122.59 128.38,122.54 128.52,122.49 128.66,122.44 128.81,122.39 128.95,122.34 129.09,122.28 129.23,122.23 129.37,122.18 129.51,122.12 129.66,122.07 129.8,122.01 129.94,121.96 130.08,121.9 130.22,121.84 130.37,121.79 130.51,121.73 130.65,121.67 130.79,121.61 130.93,121.55 131.07,121.49 131.22,121.43 131.36,121.37 131.5,121.31 131.64,121.24 131.78,121.18 131.92,121.12 132.07,121.05 132.21,120.99 132.35,120.92 132.49,120.85 132.64,120.79 132.78,120.72 132.92,120.65 133.06,120.58 133.2,120.51 133.34,120.44 133.49,120.37 133.63,120.3 133.77,120.22 133.91,120.15 134.05,120.07 134.19,120 134.33,119.92 134.48,119.85 134.62,119.77 134.76,119.69 134.9,119.61 135.05,119.53 135.19,119.45 135.33,119.37 135.47,119.29 135.61,119.21 135.75,119.12 135.9,119.04 136.04,118.95 136.18,118.86 136.32,118.78 136.46,118.69 136.6,118.6 136.75,118.51 136.89,118.42 137.03,118.33 137.17,118.23 137.31,118.14 137.46,118.05 137.6,117.95 137.74,117.85 137.88,117.76 138.02,117.66 138.17,117.56 138.31,117.46 138.45,117.36 138.59,117.25 138.73,117.15 138.87,117.05 139.01,116.94 139.16,116.84 139.3,116.73 139.44,116.62 139.58,116.51 139.72,116.4 139.86,116.29 140.01,116.17 140.15,116.06 140.29,115.94 140.43,115.82 140.58,115.71 140.72,115.59 140.86,115.47 141,115.35 141.14,115.22 141.28,115.1 141.43,114.98 141.57,114.85 141.71,114.72 141.85,114.59 141.99,114.46 142.13,114.33 142.28,114.2 142.42,114.06 142.56,113.93 142.7,113.79 142.85,113.65 142.99,113.51 143.13,113.37 143.27,113.23 143.41,113.09 143.55,112.94 143.69,112.79 143.84,112.65 143.98,112.5 144.12,112.35 144.26,112.19 144.4,112.04 144.54,111.88 144.69,111.72 144.83,111.56 144.97,111.4 145.11,111.24 145.26,111.08 145.4,110.91 145.54,110.75 145.68,110.57 145.82,110.4 145.96,110.23 146.11,110.06 146.25,109.88 146.39,109.71 146.53,109.52 146.67,109.34 146.81,109.16 146.96,108.98 147.1,108.79 147.24,108.6 147.38,108.41 147.52,108.22 147.66,108.02 147.81,107.83 147.95,107.63 148.09,107.43 148.23,107.23 148.37,107.02 148.52,106.82 148.66,106.61 148.8,106.4 148.94,106.19 149.08,105.97 149.22,105.76 149.37,105.53 149.51,105.31 149.65,105.09 149.79,104.86 149.93,104.64 150.07,104.4 150.22,104.17 150.36,103.94 150.5,103.7 150.64,103.46 150.79,103.22 150.93,102.97 151.07,102.73 151.21,102.48 151.35,102.23 151.49,101.97 151.64,101.71 151.78,101.45 151.92,101.19 152.06,100.93 152.2,100.66 152.34,100.39 152.49,100.12 152.63,99.84 152.77,99.56 152.91,99.28 153.05,99 153.2,98.71 153.34,98.42 153.48,98.13 153.62,97.83 153.76,97.53 153.9,97.23 154.05,96.93 154.19,96.62 154.33,96.31 154.47,95.99 154.61,95.67 154.75,95.36 154.9,95.03 155.04,94.7 155.18,94.38 155.32,94.04 155.47,93.71 155.6,93.36 155.75,93.02 155.89,92.67 156.03,92.33 156.17,91.97 156.32,91.61 156.46,91.25 156.6,90.89 156.74,90.52 156.88,90.14 157.02,89.77 157.17,89.39 157.31,89.01 157.45,88.62 157.59,88.23 157.73,87.83 157.87,87.43 158.01,87.03 158.16,86.62 158.3,86.21 158.44,85.8 158.58,85.38 158.73,84.95 158.87,84.53 159.01,84.09 159.15,83.66 159.29,83.21 159.43,82.77 159.58,82.32 159.72,81.86 159.86,81.4 160,80.94 160.14,80.47 160.28,80 160.43,79.52 160.57,79.04 160.71,78.55 160.85,78.06 161,77.56 161.14,77.06 161.28,76.55 161.42,76.04 161.56,75.52 161.7,75 161.85,74.47 161.99,73.94 162.13,73.4 162.27,72.85 162.41,72.31 162.55,71.75 162.69,71.19 162.84,70.62 162.98,70.05 163.12,69.47 163.26,68.89 163.41,68.3 163.55,67.7 163.69,67.1 163.83,66.49 163.97,65.88 164.11,65.26 164.26,64.64 164.4,64 164.54,63.36 164.68,62.72 164.82,62.07 164.96,61.41 165.11,60.74 165.25,60.07 165.39,59.4 165.53,58.71 165.67,58.02 165.81,57.32 165.96,56.61 166.1,55.9 166.24,55.18 166.38,54.45 166.53,53.72 166.67,52.98 166.81,52.22 166.95,51.47 167.09,50.7 167.23,49.93 167.37,49.15 167.52,48.36 167.66,47.57 167.8,46.76 167.94,45.95 168.08,45.13 168.22,44.3 168.37,43.47 168.51,42.62 168.65,41.77 168.79,40.91 168.94,40.04 169.08,39.16 169.22,38.27 169.36,37.37 169.5,36.46 169.64,35.55 169.79,34.62 169.93,33.69 170.07,32.74 170.21,31.79 170.35,30.83 170.49,29.86 170.64,28.88 170.78,27.88 170.92,26.88 171.06,25.87 171.21,24.85 171.31,24.09 "/>
  <polyline class="fil1 str1" points="106.67,126.55 106.52,126.54 106.38,126.53 106.24,126.52 106.1,126.51 105.96,126.5 105.81,126.49 105.67,126.48 105.53,126.47 105.39,126.45 105.25,126.44 105.11,126.43 104.96,126.42 104.82,126.41 104.68,126.4 104.54,126.39 104.4,126.38 104.26,126.36 104.11,126.35 103.97,126.34 103.83,126.33 103.69,126.31 103.54,126.3 103.4,126.29 103.26,126.28 103.12,126.27 102.98,126.25 102.84,126.24 102.69,126.23 102.55,126.21 102.41,126.2 102.27,126.18 102.13,126.17 101.99,126.16 101.85,126.14 101.7,126.13 101.56,126.12 101.42,126.1 101.28,126.09 101.13,126.07 100.99,126.06 100.85,126.04 100.71,126.03 100.57,126.01 100.43,126 100.28,125.98 100.14,125.97 100,125.95 99.86,125.93 99.72,125.91 99.58,125.9 99.43,125.88 99.29,125.87 99.15,125.85 99.01,125.83 98.86,125.82 98.72,125.8 98.58,125.78 98.44,125.76 98.3,125.74 98.16,125.73 98.01,125.71 97.87,125.69 97.73,125.67 97.59,125.65 97.45,125.63 97.31,125.61 97.17,125.59 97.02,125.57 96.88,125.56 96.74,125.54 96.6,125.51 96.46,125.49 96.32,125.47 96.17,125.45 96.03,125.43 95.89,125.41 95.75,125.39 95.6,125.37 95.46,125.34 95.32,125.32 95.18,125.3 95.04,125.28 94.9,125.25 94.75,125.23 94.61,125.21 94.47,125.18 94.33,125.16 94.19,125.14 94.05,125.11 93.9,125.09 93.76,125.06 93.62,125.04 93.48,125.01 93.33,124.99 93.19,124.96 93.05,124.93 92.91,124.91 92.77,124.88 92.63,124.86 92.49,124.83 92.34,124.8 92.2,124.77 92.06,124.75 91.92,124.72 91.78,124.69 91.64,124.66 91.49,124.63 91.35,124.6 91.21,124.57 91.07,124.54 90.92,124.51 90.78,124.48 90.64,124.45 90.5,124.42 90.36,124.39 90.22,124.36 90.07,124.33 89.93,124.29 89.79,124.26 89.65,124.23 89.51,124.19 89.37,124.16 89.22,124.12 89.08,124.09 88.94,124.06 88.8,124.02 88.66,123.98 88.51,123.95 88.37,123.91 88.23,123.87 88.09,123.84 87.95,123.8 87.81,123.76 87.66,123.73 87.52,123.69 87.38,123.65 87.24,123.61 87.1,123.57 86.96,123.53 86.81,123.49 86.67,123.45 86.53,123.41 86.39,123.36 86.25,123.32 86.11,123.28 85.96,123.24 85.82,123.19 85.68,123.15 85.54,123.11 85.39,123.06 85.25,123.02 85.11,122.97 84.97,122.92 84.83,122.88 84.69,122.83 84.54,122.78 84.4,122.74 84.26,122.69 84.12,122.64 83.98,122.59 83.84,122.54 83.69,122.49 83.55,122.44 83.41,122.39 83.27,122.34 83.13,122.28 82.98,122.23 82.84,122.18 82.7,122.12 82.56,122.07 82.42,122.01 82.28,121.96 82.13,121.9 81.99,121.84 81.85,121.79 81.71,121.73 81.57,121.67 81.43,121.61 81.28,121.55 81.14,121.49 81,121.43 80.86,121.37 80.71,121.31 80.57,121.24 80.43,121.18 80.29,121.12 80.15,121.05 80.01,120.99 79.86,120.92 79.72,120.85 79.58,120.79 79.44,120.72 79.3,120.65 79.16,120.58 79.01,120.51 78.87,120.44 78.73,120.37 78.59,120.3 78.45,120.22 78.31,120.15 78.16,120.07 78.02,120 77.88,119.92 77.74,119.85 77.6,119.77 77.45,119.69 77.31,119.61 77.17,119.53 77.03,119.45 76.89,119.37 76.75,119.29 76.6,119.21 76.46,119.12 76.32,119.04 76.18,118.95 76.04,118.86 75.9,118.78 75.75,118.69 75.61,118.6 75.47,118.51 75.33,118.42 75.18,118.33 75.04,118.23 74.9,118.14 74.76,118.05 74.62,117.95 74.48,117.85 74.33,117.76 74.19,117.66 74.05,117.56 73.91,117.46 73.77,117.36 73.63,117.25 73.49,117.15 73.34,117.05 73.2,116.94 73.06,116.84 72.92,116.73 72.77,116.62 72.63,116.51 72.49,116.4 72.35,116.29 72.21,116.17 72.07,116.06 71.92,115.94 71.78,115.82 71.64,115.71 71.5,115.59 71.36,115.47 71.22,115.35 71.07,115.22 70.93,115.1 70.79,114.98 70.65,114.85 70.51,114.72 70.37,114.59 70.22,114.46 70.08,114.33 69.94,114.2 69.8,114.06 69.65,113.93 69.51,113.79 69.37,113.65 69.23,113.51 69.09,113.37 68.95,113.23 68.81,113.09 68.66,112.94 68.52,112.79 68.38,112.65 68.24,112.5 68.1,112.35 67.96,112.19 67.81,112.04 67.67,111.88 67.53,111.72 67.39,111.56 67.24,111.4 67.1,111.24 66.96,111.08 66.82,110.91 66.68,110.75 66.54,110.57 66.39,110.4 66.25,110.23 66.11,110.06 65.97,109.88 65.83,109.71 65.69,109.52 65.54,109.34 65.4,109.16 65.26,108.98 65.12,108.79 64.97,108.6 64.83,108.41 64.69,108.22 64.55,108.02 64.41,107.83 64.27,107.63 64.13,107.43 63.98,107.23 63.84,107.02 63.7,106.82 63.56,106.61 63.42,106.4 63.28,106.19 63.13,105.97 62.99,105.76 62.85,105.53 62.71,105.31 62.56,105.09 62.42,104.86 62.28,104.64 62.14,104.4 62,104.17 61.86,103.94 61.71,103.7 61.57,103.46 61.43,103.22 61.29,102.97 61.15,102.73 61.01,102.48 60.86,102.23 60.72,101.97 60.58,101.71 60.44,101.45 60.3,101.19 60.16,100.93 60.01,100.66 59.87,100.39 59.73,100.12 59.59,99.84 59.45,99.56 59.3,99.28 59.16,99 59.02,98.71 58.88,98.42 58.74,98.13 58.6,97.83 58.45,97.53 58.31,97.23 58.17,96.93 58.03,96.62 57.89,96.31 57.75,95.99 57.6,95.67 57.46,95.36 57.32,95.03 57.18,94.7 57.03,94.38 56.89,94.04 56.75,93.71 56.61,93.36 56.47,93.02 56.33,92.67 56.18,92.33 56.04,91.97 55.9,91.61 55.76,91.25 55.62,90.89 55.48,90.52 55.33,90.14 55.19,89.77 55.05,89.39 54.91,89.01 54.77,88.62 54.62,88.23 54.48,87.83 54.34,87.43 54.2,87.03 54.06,86.62 53.92,86.21 53.77,85.8 53.63,85.38 53.49,84.95 53.35,84.53 53.21,84.09 53.07,83.66 52.92,83.21 52.78,82.77 52.64,82.32 52.5,81.86 52.36,81.4 52.21,80.94 52.07,80.47 51.93,80 51.79,79.52 51.65,79.04 51.5,78.55 51.36,78.06 51.22,77.56 51.08,77.06 50.94,76.55 50.8,76.04 50.65,75.52 50.51,75 50.37,74.47 50.23,73.94 50.09,73.4 49.95,72.85 49.81,72.31 49.66,71.75 49.52,71.19 49.38,70.62 49.24,70.05 49.09,69.47 48.95,68.89 48.81,68.3 48.67,67.7 48.53,67.1 48.39,66.49 48.24,65.88 48.1,65.26 47.96,64.64 47.82,64 47.68,63.36 47.54,62.72 47.39,62.07 47.25,61.41 47.11,60.74 46.97,60.07 46.82,59.4 46.68,58.71 46.54,58.02 46.4,57.32 46.26,56.61 46.12,55.9 45.97,55.18 45.83,54.45 45.69,53.72 45.55,52.98 45.41,52.22 45.27,51.47 45.13,50.7 44.98,49.93 44.84,49.15 44.7,48.36 44.56,47.57 44.42,46.76 44.27,45.95 44.13,45.13 43.99,44.3 43.85,43.47 43.71,42.62 43.56,41.77 43.42,40.91 43.28,40.04 43.14,39.16 43,38.27 42.86,37.37 42.71,36.46 42.57,35.55 42.43,34.62 42.29,33.69 42.15,32.74 42.01,31.79 41.86,30.83 41.72,29.86 41.58,28.88 41.44,27.88 41.29,26.88 41.15,25.87 41.01,24.85 40.9,24.06 "/>
  <polyline class="fil1 str1" points="106.1,210.86 106.1,210.78 106.1,210.64 106.1,210.5 106.1,210.35 106.1,210.21 106.1,210.07 106.1,209.93 106.1,209.78 106.1,209.64 106.1,209.5 106.1,209.36 106.1,209.22 106.1,209.08 106.1,208.93 106.1,208.79 106.1,208.65 106.1,208.51 106.1,208.37 106.1,208.23 106.1,208.08 106.1,207.94 106.1,207.8 106.1,207.66 106.1,207.51 106.1,207.37 106.1,207.23 106.1,207.09 106.1,206.95 106.1,206.81 106.1,206.67 106.1,206.52 106.1,206.38 106.1,206.24 106.1,206.1 106.1,205.96 106.1,205.82 106.1,205.67 106.1,205.53 106.1,205.39 106.1,205.25 106.1,205.1 106.1,204.96 106.1,204.82 106.1,204.68 106.1,204.54 106.1,204.4 106.1,204.25 106.1,204.11 106.1,203.97 106.1,203.83 106.1,203.69 106.1,203.55 106.1,203.4 106.1,203.26 106.1,203.12 106.1,202.98 106.1,202.84 106.1,202.69 106.1,202.55 106.1,202.41 106.1,202.27 106.1,202.13 106.1,201.99 106.1,201.84 106.1,201.7 106.1,201.56 106.1,201.42 106.1,201.28 106.1,201.14 106.1,200.99 106.1,200.85 106.1,200.71 106.1,200.57 106.1,200.43 106.1,200.29 106.1,200.14 106.1,200 106.1,199.86 106.1,199.72 106.1,199.57 106.1,199.43 106.1,199.29 106.1,199.15 106.1,199.01 106.1,198.87 106.1,198.72 106.1,198.58 106.1,198.44 106.1,198.3 106.1,198.16 106.1,198.02 106.1,197.87 106.1,197.73 106.1,197.59 106.1,197.45 106.1,197.31 106.1,197.16 106.1,197.02 106.1,196.88 106.1,196.74 106.1,196.6 106.1,196.46 106.1,196.31 106.1,196.17 106.1,196.03 106.1,195.89 106.1,195.75 106.1,195.61 106.1,195.46 106.1,195.32 106.1,195.18 106.1,195.04 106.1,194.89 106.1,194.75 106.1,194.61 106.1,194.47 106.1,194.33 106.1,194.19 106.1,194.04 106.1,193.9 106.1,193.76 106.1,193.62 106.1,193.48 106.1,193.34 106.1,193.19 106.1,193.05 106.1,192.91 106.1,192.77 106.1,192.63 106.1,192.49 106.1,192.34 106.1,192.2 106.1,192.06 106.1,191.92 106.1,191.78 106.1,191.63 106.1,191.49 106.1,191.35 106.1,191.21 106.1,191.07 106.1,190.93 106.1,190.78 106.1,190.64 106.1,190.5 106.1,190.36 106.1,190.22 106.1,190.08 106.1,189.93 106.1,189.79 106.1,189.65 106.1,189.51 106.1,189.36 106.1,189.22 106.1,189.08 106.1,188.94 106.1,188.8 106.1,188.66 106.1,188.51 106.1,188.37 106.1,188.23 106.1,188.09 106.1,187.95 106.1,187.81 106.1,187.67 106.1,187.52 106.1,187.38 106.1,187.24 106.1,187.1 106.1,186.95 106.1,186.81 106.1,186.67 106.1,186.53 106.1,186.39 106.1,186.25 106.1,186.1 106.1,185.96 106.1,185.82 106.1,185.68 106.1,185.54 106.1,185.4 106.1,185.25 106.09,185.11 106.09,184.97 106.09,184.83 106.09,184.69 106.09,184.55 106.09,184.4 106.09,184.26 106.09,184.12 106.09,183.98 106.09,183.83 106.09,183.69 106.09,183.55 106.09,183.41 106.09,183.27 106.09,183.13 106.09,182.99 106.09,182.84 106.09,182.7 106.09,182.56 106.09,182.42 106.09,182.28 106.09,182.14 106.09,181.99 106.09,181.85 106.09,181.71 106.09,181.57 106.09,181.42 106.09,181.28 106.09,181.14 106.09,181 106.09,180.86 106.09,180.72 106.09,180.57 106.09,180.43 106.09,180.29 106.09,180.15 106.09,180.01 106.09,179.87 106.09,179.72 106.09,179.58 106.09,179.44 106.09,179.3 106.09,179.15 106.09,179.01 106.09,178.87 106.09,178.73 106.09,178.59 106.09,178.45 106.09,178.31 106.09,178.16 106.09,178.02 106.09,177.88 106.09,177.74 106.09,177.6 106.09,177.46 106.09,177.31 106.09,177.17 106.09,177.03 106.09,176.89 106.09,176.74 106.09,176.6 106.09,176.46 106.09,176.32 106.08,176.18 106.08,176.04 106.08,175.89 106.08,175.75 106.08,175.61 106.08,175.47 106.08,175.33 106.08,175.19 106.08,175.04 106.08,174.9 106.08,174.76 106.08,174.62 106.08,174.48 106.08,174.34 106.08,174.19 106.08,174.05 106.08,173.91 106.08,173.77 106.08,173.63 106.08,173.48 106.08,173.34 106.08,173.2 106.08,173.06 106.08,172.92 106.08,172.78 106.08,172.63 106.08,172.49 106.08,172.35 106.08,172.21 106.08,172.07 106.08,171.93 106.08,171.78 106.08,171.64 106.08,171.5 106.08,171.36 106.08,171.21 106.08,171.07 106.08,170.93 106.07,170.79 106.07,170.65 106.07,170.51 106.07,170.36 106.07,170.22 106.07,170.08 106.07,169.94 106.07,169.8 106.07,169.66 106.07,169.51 106.07,169.37 106.07,169.23 106.07,169.09 106.07,168.95 106.07,168.8 106.07,168.66 106.07,168.52 106.07,168.38 106.07,168.24 106.07,168.1 106.07,167.95 106.07,167.81 106.07,167.67 106.07,167.53 106.07,167.39 106.07,167.25 106.07,167.1 106.07,166.96 106.06,166.82 106.06,166.68 106.06,166.54 106.06,166.39 106.06,166.25 106.06,166.11 106.06,165.97 106.06,165.83 106.06,165.68 106.06,165.54 106.06,165.4 106.06,165.26 106.06,165.12 106.06,164.98 106.06,164.83 106.06,164.69 106.06,164.55 106.06,164.41 106.06,164.27 106.06,164.13 106.06,163.99 106.06,163.84 106.05,163.7 106.05,163.56 106.05,163.42 106.05,163.27 106.05,163.13 106.05,162.99 106.05,162.85 106.05,162.71 106.05,162.57 106.05,162.42 106.05,162.28 106.05,162.14 106.05,162 106.05,161.86 106.05,161.72 106.05,161.57 106.05,161.43 106.05,161.29 106.04,161.15 106.04,161 106.04,160.86 106.04,160.72 106.04,160.58 106.04,160.44 106.04,160.3 106.04,160.15 106.04,160.01 106.04,159.87 106.04,159.73 106.04,159.59 106.04,159.45 106.04,159.31 106.04,159.16 106.03,159.02 106.03,158.88 106.03,158.74 106.03,158.59 106.03,158.45 106.03,158.31 106.03,158.17 106.03,158.03 106.03,157.89 106.03,157.74 106.03,157.6 106.03,157.46 106.03,157.32 106.02,157.18 106.02,157.04 106.02,156.89 106.02,156.75 106.02,156.61 106.02,156.47 106.02,156.33 106.02,156.19 106.02,156.04 106.02,155.9 106.02,155.76 106.01,155.62 106.01,155.47 106.01,155.33 106.01,155.19 106.01,155.05 106.01,154.91 106.01,154.77 106.01,154.63 106.01,154.48 106.01,154.34 106.01,154.2 106,154.06 106,153.92 106,153.78 106,153.63 106,153.49 106,153.35 105.99,153.21 105.99,153.06 105.99,152.92 105.99,152.78 105.99,152.64 105.99,152.5 105.99,152.36 105.99,152.21 105.99,152.07 105.98,151.93 105.98,151.79 105.98,151.65 105.98,151.51 105.98,151.36 105.98,151.22 105.98,151.08 105.98,150.94 105.97,150.8 105.97,150.65 105.97,150.51 105.97,150.37 105.97,150.23 105.97,150.09 105.97,149.95 105.97,149.8 105.96,149.66 105.96,149.52 105.96,149.38 105.96,149.24 105.96,149.1 105.96,148.95 105.96,148.81 105.95,148.67 105.95,148.53 105.95,148.39 105.95,148.25 105.95,148.1 105.95,147.96 105.94,147.82 105.94,147.68 105.94,147.53 105.94,147.39 105.94,147.25 105.94,147.11 105.93,146.97 105.93,146.83 105.93,146.68 105.93,146.54 105.93,146.4 105.93,146.26 105.92,146.12 105.92,145.98 105.92,145.83 105.92,145.69 105.92,145.55 105.92,145.41 105.91,145.27 105.91,145.12 105.91,144.98 105.91,144.84 105.91,144.7 105.9,144.56 105.9,144.42 105.9,144.27 105.9,144.13 105.9,143.99 105.89,143.85 105.89,143.71 105.89,143.57 105.89,143.42 105.88,143.28 105.88,143.14 105.88,143 105.88,142.85 105.88,142.71 105.87,142.57 105.87,142.43 105.87,142.29 105.87,142.15 105.86,142 105.86,141.86 105.86,141.72 105.86,141.58 105.85,141.44 105.85,141.3 105.85,141.15 105.84,141.01 105.84,140.87 105.84,140.73 105.84,140.59 105.83,140.44 105.83,140.3 105.83,140.16 105.83,140.02 105.82,139.88 105.82,139.74 105.82,139.59 105.81,139.45 105.81,139.31 105.81,139.17 105.81,139.03 105.8,138.89 105.8,138.74 105.8,138.6 105.79,138.46 105.79,138.32 105.79,138.18 105.78,138.04 105.78,137.89 105.78,137.75 105.77,137.61 105.77,137.47 105.77,137.32 105.76,137.18 105.76,137.04 105.76,136.9 105.75,136.76 105.75,136.62 105.75,136.47 105.74,136.33 105.74,136.19 105.74,136.05 105.73,135.91 105.73,135.77 105.73,135.63 105.72,135.48 105.71,135.34 105.71,135.2 105.71,135.06 105.7,134.91 105.7,134.77 105.7,134.63 105.69,134.49 105.69,134.35 105.68,134.21 105.68,134.06 105.67,133.92 105.67,133.78 105.67,133.64 105.66,133.5 105.66,133.36 105.65,133.21 105.65,133.07 105.64,132.93 105.64,132.79 105.63,132.64 105.63,132.5 105.63,132.36 105.62,132.22 105.62,132.08 105.61,131.94 105.61,131.79 105.6,131.65 105.6,131.51 105.59,131.37 105.59,131.23 105.58,131.09 105.57,130.95 105.57,130.8 105.56,130.66 105.56,130.52 105.55,130.38 105.55,130.24 105.54,130.09 105.53,129.95 105.53,129.81 105.52,129.67 105.52,129.53 105.51,129.38 105.51,129.24 105.5,129.1 105.49,128.96 105.49,128.82 105.48,128.68 105.48,128.53 105.47,128.39 105.46,128.25 105.46,128.11 105.45,127.97 105.44,127.83 105.43,127.68 105.43,127.54 105.42,127.4 105.41,127.26 105.41,127.11 105.4,126.97 105.39,126.83 105.39,126.69 105.38,126.55 105.37,126.41 105.37,126.27 105.36,126.12 105.35,125.98 105.34,125.84 105.34,125.7 105.33,125.56 105.32,125.42 105.31,125.27 105.3,125.13 105.29,124.99 105.29,124.85 105.28,124.7 105.27,124.56 105.26,124.42 105.25,124.28 105.25,124.14 105.24,124 105.23,123.85 105.22,123.71 105.21,123.57 105.2,123.43 105.19,123.29 105.18,123.15 105.17,123 105.16,122.86 105.15,122.72 105.14,122.58 105.13,122.44 105.13,122.29 105.12,122.15 105.11,122.01 105.1,121.87 105.09,121.73 105.08,121.59 105.07,121.44 105.06,121.3 105.04,121.16 105.03,121.02 105.02,120.88 105.01,120.74 105,120.59 104.99,120.45 104.98,120.31 104.97,120.17 104.96,120.03 104.94,119.89 104.93,119.74 104.92,119.6 104.91,119.46 104.89,119.32 104.88,119.17 104.87,119.03 104.86,118.89 104.85,118.75 104.83,118.61 104.82,118.47 104.81,118.32 104.8,118.18 104.78,118.04 104.77,117.9 104.75,117.76 104.74,117.62 104.73,117.47 104.71,117.33 104.7,117.19 104.69,117.05 104.67,116.91 104.66,116.76 104.64,116.62 104.63,116.48 104.61,116.34 104.6,116.2 104.58,116.06 104.57,115.91 104.55,115.77 104.54,115.63 104.52,115.49 104.5,115.35 104.49,115.21 104.47,115.06 104.46,114.92 104.44,114.78 104.42,114.64 104.41,114.49 104.39,114.35 104.37,114.21 104.35,114.07 104.34,113.93 104.32,113.79 104.3,113.64 104.28,113.5 104.26,113.36 104.25,113.22 104.23,113.08 104.21,112.94 104.19,112.79 104.17,112.65 104.15,112.51 104.13,112.37 104.11,112.23 104.09,112.09 104.07,111.95 104.05,111.8 104.03,111.66 104.01,111.52 103.99,111.38 103.96,111.23 103.94,111.09 103.92,110.95 103.9,110.81 103.88,110.67 103.86,110.53 103.83,110.38 103.81,110.24 103.79,110.1 103.76,109.96 103.74,109.82 103.72,109.68 103.69,109.53 103.67,109.39 103.64,109.25 103.62,109.11 103.59,108.96 103.57,108.82 103.54,108.68 103.52,108.54 103.49,108.4 103.47,108.26 103.44,108.11 103.41,107.97 103.38,107.83 103.36,107.69 103.33,107.55 103.3,107.41 103.27,107.27 103.24,107.12 103.22,106.98 103.19,106.84 103.16,106.7 103.13,106.55 103.1,106.41 103.07,106.27 103.04,106.13 103.01,105.99 102.97,105.85 102.94,105.7 102.91,105.56 102.88,105.42 102.85,105.28 102.81,105.14 102.78,105 102.75,104.85 102.71,104.71 102.68,104.57 102.65,104.43 102.61,104.29 102.58,104.14 102.54,104 102.51,103.86 102.47,103.72 102.43,103.58 102.4,103.43 102.36,103.29 102.32,103.15 102.28,103.01 102.24,102.87 102.2,102.73 102.16,102.59 102.13,102.44 102.08,102.3 102.04,102.16 102,102.02 101.96,101.88 101.92,101.74 101.88,101.59 101.84,101.45 101.79,101.31 101.75,101.17 101.71,101.02 101.66,100.88 101.62,100.74 101.57,100.6 101.53,100.46 101.48,100.32 101.44,100.17 101.39,100.03 101.34,99.89 101.29,99.75 101.24,99.61 101.2,99.47 101.14,99.32 101.1,99.18 101.05,99.04 100.99,98.9 100.94,98.75 100.89,98.61 100.84,98.47 100.79,98.33 100.73,98.19 100.68,98.05 100.62,97.91 100.57,97.76 100.51,97.62 100.46,97.48 100.4,97.34 100.34,97.2 100.28,97.06 100.23,96.91 100.17,96.77 100.11,96.63 100.05,96.49 99.99,96.34 99.92,96.2 99.86,96.06 99.8,95.92 99.74,95.78 99.67,95.64 99.61,95.49 99.54,95.35 99.48,95.21 99.41,95.07 99.34,94.93 99.28,94.79 99.21,94.64 99.14,94.5 99.07,94.36 98.99,94.22 98.92,94.08 98.85,93.94 98.78,93.79 98.7,93.65 98.63,93.51 98.55,93.37 98.48,93.23 98.4,93.08 98.32,92.94 98.25,92.8 98.17,92.66 98.09,92.52 98.01,92.38 97.93,92.23 97.84,92.09 97.76,91.95 97.68,91.81 97.59,91.67 97.51,91.53 97.42,91.38 97.33,91.24 97.24,91.1 97.16,90.96 97.07,90.81 96.97,90.67 96.88,90.53 96.79,90.39 96.7,90.25 96.6,90.11 96.51,89.96 96.41,89.82 96.31,89.68 96.22,89.54 96.11,89.4 96.01,89.26 95.91,89.11 95.81,88.97 95.71,88.83 95.6,88.69 95.5,88.55 95.39,88.4 95.28,88.26 95.17,88.12 95.06,87.98 94.95,87.84 94.84,87.7 94.73,87.55 94.61,87.41 94.5,87.27 94.38,87.13 94.26,86.99 94.14,86.85 94.02,86.7 93.9,86.56 93.78,86.42 93.66,86.28 93.53,86.14 93.41,86 93.28,85.85 93.15,85.71 93.02,85.57 92.89,85.43 92.75,85.28 92.62,85.14 92.48,85 92.35,84.86 92.21,84.72 92.07,84.58 91.93,84.43 91.79,84.29 91.64,84.15 91.5,84.01 91.35,83.87 91.2,83.73 91.05,83.59 90.9,83.44 90.75,83.3 90.59,83.16 90.44,83.02 90.28,82.87 90.12,82.73 89.96,82.59 89.8,82.45 89.63,82.31 89.47,82.17 89.3,82.02 89.13,81.88 88.96,81.74 88.79,81.6 88.61,81.46 88.44,81.32 88.26,81.17 88.08,81.03 87.9,80.89 87.72,80.75 87.53,80.6 87.35,80.46 87.16,80.32 86.97,80.18 86.78,80.04 86.58,79.9 86.38,79.75 86.18,79.61 85.99,79.47 85.78,79.33 85.58,79.19 85.37,79.05 85.17,78.91 84.95,78.76 84.74,78.62 84.53,78.48 84.31,78.34 84.09,78.19 83.87,78.05 83.64,77.91 83.42,77.77 83.19,77.63 82.96,77.49 82.73,77.34 82.49,77.2 82.26,77.06 82.02,76.92 81.77,76.78 81.53,76.64 81.28,76.49 81.03,76.35 80.78,76.21 80.53,76.07 80.27,75.93 80.01,75.79 79.75,75.64 79.48,75.5 79.21,75.36 78.94,75.22 78.67,75.07 78.4,74.93 78.12,74.79 77.84,74.65 77.55,74.51 77.27,74.37 76.98,74.23 76.68,74.08 76.39,73.94 76.09,73.8 75.79,73.66 75.48,73.52 75.17,73.38 74.86,73.23 74.55,73.09 74.23,72.95 73.91,72.81 73.59,72.66 73.26,72.52 72.93,72.38 72.6,72.24 72.26,72.1 71.92,71.96 71.58,71.81 71.23,71.67 70.88,71.53 70.53,71.39 70.17,71.25 69.81,71.11 69.44,70.96 69.07,70.82 68.7,70.68 68.32,70.54 67.95,70.39 67.56,70.25 67.18,70.11 66.78,69.97 66.39,69.83 65.99,69.69 65.59,69.55 65.18,69.4 64.77,69.26 64.35,69.12 63.93,68.98 63.51,68.84 63.08,68.7 62.65,68.55 62.21,68.41 61.77,68.27 61.32,68.13 60.87,67.99 60.42,67.84 59.96,67.7 59.5,67.56 59.03,67.42 58.56,67.28 58.08,67.13 57.6,66.99 57.11,66.85 56.61,66.71 56.12,66.57 55.62,66.43 55.11,66.28 54.59,66.14 54.08,66 53.56,65.86 53.03,65.72 52.49,65.58 51.96,65.44 51.41,65.29 50.86,65.15 50.3,65.01 49.74,64.87 49.18,64.72 48.61,64.58 48.03,64.44 47.44,64.3 46.86,64.16 46.26,64.02 45.66,63.87 45.05,63.73 44.44,63.59 43.82,63.45 43.19,63.31 42.56,63.17 41.92,63.02 41.27,62.88 40.62,62.74 39.96,62.6 39.3,62.45 38.63,62.31 37.95,62.17 37.26,62.03 36.57,61.89 35.87,61.75 35.17,61.6 34.45,61.46 33.73,61.32 33.01,61.18 32.27,61.04 31.53,60.9 30.78,60.76 30.02,60.61 29.26,60.47 28.49,60.33 27.71,60.19 26.92,60.04 26.12,59.9 25.32,59.76 24.51,59.62 23.69,59.48 22.86,59.34 22.02,59.19 21.18,59.05 20.32,58.91 19.46,58.77 18.59,58.63 17.71,58.49 16.82,58.34 15.93,58.2 15.02,58.06 14.1,57.92 13.18,57.78 "/>
  <polyline class="fil1 str1" points="106.86,127.57 106.86,127.71 106.87,127.85 106.88,127.99 106.88,128.13 106.89,128.27 106.9,128.42 106.9,128.56 106.91,128.7 106.92,128.84 106.93,128.99 106.94,129.13 106.94,129.27 106.95,129.41 106.96,129.55 106.97,129.69 106.98,129.84 106.98,129.98 106.99,130.12 107,130.26 107.01,130.4 107.02,130.54 107.02,130.69 107.03,130.83 107.04,130.97 107.05,131.11 107.06,131.26 107.07,131.4 107.08,131.54 107.09,131.68 107.1,131.82 107.11,131.96 107.12,132.11 107.13,132.25 107.14,132.39 107.14,132.53 107.15,132.67 107.16,132.81 107.17,132.95 107.18,133.1 107.19,133.24 107.21,133.38 107.22,133.52 107.23,133.66 107.24,133.81 107.25,133.95 107.26,134.09 107.27,134.23 107.28,134.37 107.29,134.52 107.3,134.66 107.31,134.8 107.33,134.94 107.34,135.08 107.35,135.22 107.36,135.37 107.38,135.51 107.39,135.65 107.4,135.79 107.41,135.93 107.42,136.07 107.44,136.22 107.45,136.36 107.46,136.5 107.48,136.64 107.49,136.79 107.5,136.93 107.52,137.07 107.53,137.21 107.54,137.35 107.56,137.49 107.57,137.63 107.58,137.78 107.6,137.92 107.61,138.06 107.63,138.2 107.64,138.34 107.66,138.48 107.67,138.63 107.69,138.77 107.7,138.91 107.72,139.05 107.74,139.2 107.75,139.34 107.77,139.48 107.78,139.62 107.8,139.76 107.81,139.9 107.83,140.05 107.85,140.19 107.86,140.33 107.88,140.47 107.9,140.61 107.92,140.75 107.93,140.9 107.95,141.04 107.97,141.18 107.99,141.32 108.01,141.47 108.03,141.61 108.04,141.75 108.06,141.89 108.08,142.03 108.1,142.17 108.12,142.31 108.14,142.46 108.16,142.6 108.18,142.74 108.2,142.88 108.22,143.02 108.24,143.16 108.26,143.31 108.29,143.45 108.31,143.59 108.33,143.73 108.35,143.87 108.37,144.01 108.39,144.16 108.42,144.3 108.44,144.44 108.46,144.58 108.48,144.73 108.51,144.87 108.53,145.01 108.56,145.15 108.58,145.29 108.6,145.43 108.63,145.58 108.65,145.72 108.68,145.86 108.7,146 108.73,146.14 108.75,146.28 108.78,146.43 108.8,146.57 108.83,146.71 108.86,146.85 108.89,146.99 108.91,147.14 108.94,147.28 108.97,147.42 109,147.56 109.03,147.7 109.05,147.84 109.09,147.99 109.11,148.13 109.14,148.27 109.17,148.41 109.2,148.55 109.23,148.69 109.26,148.84 109.3,148.98 109.33,149.12 109.36,149.26 109.39,149.41 109.42,149.55 109.46,149.69 109.49,149.83 109.52,149.97 109.56,150.11 109.59,150.26 109.63,150.4 109.66,150.54 109.69,150.68 109.73,150.82 109.77,150.96 109.8,151.11 109.84,151.25 109.87,151.39 109.91,151.53 109.95,151.67 109.99,151.82 110.03,151.96 110.07,152.1 110.11,152.24 110.14,152.38 110.19,152.52 110.23,152.67 110.27,152.81 110.31,152.95 110.35,153.09 110.39,153.23 110.44,153.37 110.48,153.52 110.52,153.66 110.57,153.8 110.61,153.94 110.65,154.08 110.7,154.22 110.74,154.37 110.79,154.51 110.84,154.65 110.88,154.79 110.93,154.94 110.98,155.08 111.03,155.22 111.07,155.36 111.13,155.5 111.17,155.64 111.22,155.79 111.28,155.93 111.33,156.07 111.38,156.21 111.43,156.35 111.48,156.49 111.54,156.63 111.59,156.78 111.65,156.92 111.7,157.06 111.76,157.2 111.81,157.35 111.87,157.49 111.93,157.63 111.99,157.77 112.05,157.91 112.1,158.05 112.16,158.2 112.22,158.34 112.28,158.48 112.35,158.62 112.41,158.76 112.47,158.9 112.53,159.05 112.6,159.19 112.66,159.33 112.73,159.47 112.79,159.61 112.86,159.76 112.93,159.9 113,160.04 113.06,160.18 113.14,160.32 113.2,160.47 113.28,160.61 113.35,160.75 113.42,160.89 113.49,161.03 113.57,161.17 113.64,161.31 113.72,161.46 113.79,161.6 113.87,161.74 113.95,161.88 114.02,162.02 114.1,162.17 114.18,162.31 114.26,162.45 114.35,162.59 114.43,162.73 114.51,162.88 114.59,163.02 114.68,163.16 114.76,163.3 114.85,163.44 114.94,163.58 115.03,163.73 115.11,163.87 115.2,164.01 115.3,164.15 115.39,164.29 115.48,164.43 115.57,164.58 115.67,164.72 115.76,164.86 115.86,165 115.96,165.15 116.05,165.29 116.16,165.43 116.26,165.57 116.36,165.71 116.46,165.85 116.56,165.99 116.67,166.14 116.77,166.28 116.88,166.42 116.99,166.56 117.1,166.7 117.21,166.84 117.32,166.99 117.43,167.13 117.54,167.27 117.66,167.41 117.77,167.56 117.89,167.7 118.01,167.84 118.13,167.98 118.25,168.12 118.37,168.26 118.49,168.41 118.61,168.55 118.74,168.69 118.86,168.83 118.99,168.97 119.12,169.11 119.25,169.26 119.38,169.4 119.52,169.54 119.65,169.68 119.79,169.82 119.92,169.96 120.06,170.11 120.2,170.25 120.34,170.39 120.48,170.53 120.63,170.67 120.77,170.82 120.92,170.96 121.07,171.1 121.22,171.24 121.37,171.38 121.52,171.52 121.68,171.67 121.83,171.81 121.99,171.95 122.15,172.09 122.31,172.23 122.47,172.37 122.64,172.52 122.8,172.66 122.97,172.8 123.14,172.94 123.31,173.09 123.48,173.23 123.66,173.37 123.83,173.51 124.01,173.65 124.19,173.79 124.37,173.94 124.55,174.08 124.74,174.22 124.92,174.36 125.11,174.5 125.3,174.64 125.5,174.79 125.69,174.93 125.89,175.07 126.09,175.21 126.28,175.35 126.49,175.5 126.69,175.64 126.9,175.78 127.11,175.92 127.32,176.06 127.53,176.2 127.74,176.35 127.96,176.49 128.18,176.63 128.4,176.77 128.63,176.91 128.85,177.05 129.08,177.2 129.31,177.34 129.54,177.48 129.78,177.62 130.01,177.77 130.25,177.91 130.5,178.05 130.74,178.19 130.99,178.33 131.24,178.47 131.49,178.62 131.74,178.76 132,178.9 132.26,179.04 132.52,179.18 132.79,179.32 133.06,179.47 133.33,179.61 133.6,179.75 133.87,179.89 134.15,180.03 134.43,180.17 134.72,180.31 135,180.46 135.29,180.6 135.59,180.74 135.88,180.88 136.18,181.03 136.48,181.17 136.79,181.31 137.1,181.45 137.41,181.59 137.72,181.73 138.04,181.88 138.36,182.02 138.68,182.16 139.01,182.3 139.34,182.44 139.67,182.58 140.01,182.73 140.35,182.87 140.69,183.01 141.04,183.15 141.39,183.3 141.74,183.44 142.1,183.58 142.46,183.72 142.83,183.86 143.2,184 143.57,184.15 143.95,184.29 144.33,184.43 144.71,184.57 145.09,184.71 145.49,184.85 145.88,184.99 146.28,185.14 146.68,185.28 147.09,185.42 147.5,185.56 147.92,185.71 148.34,185.85 148.76,185.99 149.19,186.13 149.62,186.27 150.06,186.41 150.5,186.56 150.95,186.7 151.4,186.84 151.85,186.98 152.31,187.12 152.77,187.26 153.24,187.41 153.71,187.55 154.19,187.69 154.68,187.83 155.16,187.97 155.66,188.12 156.15,188.26 156.65,188.4 157.16,188.54 157.68,188.68 158.19,188.83 158.72,188.97 159.25,189.11 159.78,189.25 160.32,189.39 160.86,189.53 161.41,189.67 161.97,189.82 162.53,189.96 163.09,190.1 163.66,190.24 164.24,190.38 164.83,190.52 165.41,190.67 166.01,190.81 166.61,190.95 167.22,191.09 "/>
  <polyline class="fil1 str1" points="105.59,125.01 105.58,125.16 105.57,125.3 105.57,125.44 105.56,125.58 105.55,125.72 105.55,125.87 105.54,126.01 105.54,126.15 105.53,126.29 105.52,126.43 105.52,126.58 105.51,126.72 105.5,126.86 105.5,127 105.49,127.14 105.48,127.28 105.48,127.43 105.47,127.57 105.46,127.71 105.46,127.85 105.45,127.99 105.44,128.13 105.43,128.27 105.43,128.42 105.42,128.56 105.41,128.7 105.4,128.84 105.4,128.99 105.39,129.13 105.38,129.27 105.37,129.41 105.37,129.55 105.36,129.69 105.35,129.84 105.34,129.98 105.34,130.12 105.33,130.26 105.32,130.4 105.31,130.54 105.3,130.69 105.29,130.83 105.28,130.97 105.27,131.11 105.26,131.26 105.26,131.4 105.25,131.54 105.24,131.68 105.23,131.82 105.22,131.96 105.21,132.11 105.2,132.25 105.19,132.39 105.18,132.53 105.17,132.67 105.16,132.81 105.15,132.95 105.14,133.1 105.13,133.24 105.12,133.38 105.11,133.52 105.1,133.66 105.09,133.81 105.08,133.95 105.07,134.09 105.06,134.23 105.04,134.37 105.03,134.52 105.02,134.66 105.01,134.8 105,134.94 104.99,135.08 104.97,135.22 104.96,135.37 104.95,135.51 104.94,135.65 104.93,135.79 104.91,135.93 104.9,136.07 104.89,136.22 104.88,136.36 104.86,136.5 104.85,136.64 104.84,136.79 104.82,136.93 104.81,137.07 104.8,137.21 104.78,137.35 104.77,137.49 104.75,137.63 104.74,137.78 104.73,137.92 104.71,138.06 104.7,138.2 104.68,138.34 104.67,138.48 104.65,138.63 104.64,138.77 104.62,138.91 104.61,139.05 104.59,139.2 104.58,139.34 104.56,139.48 104.54,139.62 104.53,139.76 104.51,139.9 104.49,140.05 104.48,140.19 104.46,140.33 104.44,140.47 104.43,140.61 104.41,140.75 104.39,140.9 104.37,141.04 104.35,141.18 104.34,141.32 104.32,141.47 104.3,141.61 104.28,141.75 104.26,141.89 104.24,142.03 104.22,142.17 104.2,142.31 104.18,142.46 104.17,142.6 104.15,142.74 104.13,142.88 104.11,143.02 104.08,143.16 104.06,143.31 104.04,143.45 104.02,143.59 104,143.73 103.98,143.87 103.95,144.01 103.93,144.16 103.91,144.3 103.89,144.44 103.87,144.58 103.84,144.73 103.82,144.87 103.79,145.01 103.77,145.15 103.75,145.29 103.72,145.43 103.7,145.58 103.67,145.72 103.65,145.86 103.62,146 103.6,146.14 103.57,146.28 103.54,146.43 103.52,146.57 103.49,146.71 103.47,146.85 103.44,146.99 103.41,147.14 103.38,147.28 103.36,147.42 103.33,147.56 103.3,147.7 103.27,147.84 103.24,147.99 103.21,148.13 103.18,148.27 103.15,148.41 103.12,148.55 103.09,148.69 103.06,148.84 103.03,148.98 103,149.12 102.97,149.26 102.94,149.41 102.9,149.55 102.87,149.69 102.84,149.83 102.8,149.97 102.77,150.11 102.73,150.26 102.7,150.4 102.67,150.54 102.63,150.68 102.59,150.82 102.56,150.96 102.52,151.11 102.48,151.25 102.45,151.39 102.41,151.53 102.38,151.67 102.34,151.82 102.3,151.96 102.26,152.1 102.22,152.24 102.18,152.38 102.14,152.52 102.1,152.67 102.06,152.81 102.02,152.95 101.98,153.09 101.93,153.23 101.89,153.37 101.85,153.52 101.8,153.66 101.76,153.8 101.72,153.94 101.67,154.08 101.63,154.22 101.58,154.37 101.53,154.51 101.49,154.65 101.44,154.79 101.39,154.94 101.35,155.08 101.3,155.22 101.25,155.36 101.2,155.5 101.15,155.64 101.1,155.79 101.05,155.93 101,156.07 100.95,156.21 100.89,156.35 100.84,156.49 100.79,156.63 100.73,156.78 100.68,156.92 100.62,157.06 100.57,157.2 100.51,157.35 100.45,157.49 100.4,157.63 100.34,157.77 100.28,157.91 100.22,158.05 100.16,158.2 100.1,158.34 100.04,158.48 99.98,158.62 99.92,158.76 99.85,158.9 99.79,159.05 99.73,159.19 99.66,159.33 99.6,159.47 99.53,159.61 99.46,159.76 99.4,159.9 99.33,160.04 99.26,160.18 99.19,160.32 99.12,160.47 99.05,160.61 98.98,160.75 98.91,160.89 98.83,161.03 98.76,161.17 98.68,161.31 98.61,161.46 98.53,161.6 98.46,161.74 98.38,161.88 98.3,162.02 98.22,162.17 98.14,162.31 98.06,162.45 97.98,162.59 97.9,162.73 97.82,162.88 97.73,163.02 97.65,163.16 97.56,163.3 97.47,163.44 97.39,163.58 97.3,163.73 97.21,163.87 97.12,164.01 97.03,164.15 96.94,164.29 96.85,164.43 96.75,164.58 96.66,164.72 96.56,164.86 96.47,165 96.37,165.15 96.27,165.29 96.17,165.43 96.07,165.57 95.97,165.71 95.86,165.85 95.76,165.99 95.66,166.14 95.55,166.28 95.45,166.42 95.34,166.56 95.23,166.7 95.12,166.84 95.01,166.99 94.9,167.13 94.78,167.27 94.67,167.41 94.55,167.56 94.44,167.7 94.32,167.84 94.2,167.98 94.08,168.12 93.96,168.26 93.83,168.41 93.71,168.55 93.59,168.69 93.46,168.83 93.33,168.97 93.2,169.11 93.07,169.26 92.94,169.4 92.81,169.54 92.67,169.68 92.54,169.82 92.4,169.96 92.26,170.11 92.12,170.25 91.98,170.39 91.84,170.53 91.7,170.67 91.55,170.82 91.4,170.96 91.26,171.1 91.11,171.24 90.96,171.38 90.8,171.52 90.65,171.67 90.49,171.81 90.33,171.95 90.17,172.09 90.01,172.23 89.85,172.37 89.69,172.52 89.52,172.66 89.36,172.8 89.18,172.94 89.01,173.09 88.84,173.23 88.67,173.37 88.49,173.51 88.32,173.65 88.14,173.79 87.95,173.94 87.77,174.08 87.59,174.22 87.4,174.36 87.21,174.5 87.02,174.64 86.83,174.79 86.64,174.93 86.44,175.07 86.24,175.21 86.04,175.35 85.84,175.5 85.63,175.64 85.43,175.78 85.22,175.92 85.01,176.06 84.8,176.2 84.58,176.35 84.37,176.49 84.14,176.63 83.92,176.77 83.7,176.91 83.47,177.05 83.25,177.2 83.02,177.34 82.78,177.48 82.55,177.62 82.31,177.77 82.07,177.91 81.83,178.05 81.58,178.19 81.34,178.33 81.09,178.47 80.84,178.62 80.58,178.76 80.33,178.9 80.07,179.04 79.8,179.18 79.54,179.32 79.27,179.47 79,179.61 78.73,179.75 78.45,179.89 78.17,180.03 77.89,180.17 77.61,180.31 77.32,180.46 77.03,180.6 76.74,180.74 76.44,180.88 76.15,181.03 75.84,181.17 75.54,181.31 75.23,181.45 74.92,181.59 74.6,181.73 74.29,181.88 73.97,182.02 73.64,182.16 73.32,182.3 72.99,182.44 72.65,182.58 72.32,182.73 71.97,182.87 71.63,183.01 71.28,183.15 70.94,183.3 70.58,183.44 70.22,183.58 69.86,183.72 69.5,183.86 69.13,184 68.76,184.15 68.38,184.29 68,184.43 67.62,184.57 67.23,184.71 66.84,184.85 66.44,184.99 66.04,185.14 65.64,185.28 65.23,185.42 64.82,185.56 64.41,185.71 63.99,185.85 63.56,185.99 63.14,186.13 62.7,186.27 62.27,186.41 61.82,186.56 61.38,186.7 60.93,186.84 60.47,186.98 60.02,187.12 59.55,187.26 59.08,187.41 58.61,187.55 58.13,187.69 57.65,187.83 57.16,187.97 56.67,188.12 56.17,188.26 55.67,188.4 55.16,188.54 54.65,188.68 54.13,188.83 53.61,188.97 53.08,189.11 52.55,189.25 52.01,189.39 51.46,189.53 50.92,189.67 50.36,189.82 49.8,189.96 49.23,190.1 48.66,190.24 48.08,190.38 47.5,190.52 46.91,190.67 46.31,190.81 45.71,190.95 45.11,191.09 "/>
  <path class="fil2" d="M101.56 210.76c0.08,-23.63 0.23,-47.27 0.23,-70.89l0.28 -9.18 -3.95 -0.38 -0.29 -0.04 -6.86 -1.09 -4.96 -1.18 -0.3 -0.09 -2.91 -0.91 -2.43 -0.91 -0.25 -0.09 -2.7 -1.19 -0.29 -0.14 -2.27 -1.2 -0.3 -0.18 -3.08 -1.94 -4.34 -3.5 -2.31 -2.29 -0.23 -0.25 -1.99 -2.29 -0.2 -0.25 -2.05 -2.73 -0.14 -0.2 -1.21 -1.8 -0.13 -0.18 -1.84 -3.06 -0.13 -0.21 -1.77 -3.34 -0.09 -0.2 -1.42 -2.99c-0.58,-1.3 -1.12,-2.63 -1.69,-3.94l-0.99 -2.54 -0.04 -0.11 -0.99 -2.72 -0.04 -0.13 -1.52 -4.57 -1.06 -3.49 -0.04 -0.07c-0.57,-1.99 -1.11,-3.96 -1.65,-5.95l-0.02 -0.05 -0.78 -3.06 0 -0.05 -0.64 -2.63 -0.02 -0.04 -0.43 -1.82 0 -0.04 -0.18 -0.79 0 -0.02 -0.53 -2.37 -0.02 -0.04 -0.5 -2.31 0 -0.02 -0.5 -2.39 0 -0.04 -0.15 -0.75 1.56 0.39 3.04 0.76 3.01 0.75 0.54 0.21 0.91 0.43 0.31 0.16 0.17 0.1 0.2 0.2 0.13 0.19 0.23 0.42 0.51 2.31 0 -0 0.17 0.76 0.01 -0 0.43 1.82 -0.01 0 0.62 2.55 0.01 -0 0.78 3.06 -0 0 0.96 3.53 0.64 2.22 -0.01 0 1.04 3.41 1.41 4.23 0.01 -0 0.95 2.62 0 -0 0.99 2.54 1.46 3.42 1.3 2.74 0 -0 1.74 3.28 1.75 2.9 -0 0 1.04 1.55 1.82 2.42 1.8 2.07 1.84 1.83 3.6 2.9 2.42 1.53 1.95 1.03 2.6 1.15 -0 0 1.71 0.64 2.68 0.83 4.89 1.16 6.05 0.96 3.4 0.33 0.24 -3.17 0.72 -6.4 0.04 -0.25 0.95 -5.6 0.07 -0.32 1.12 -4.61 0.11 -0.38 1.59 -4.75 1.62 -3.68 1.89 -3.43 2.4 -3.51 2.81 -3.31 2.65 -2.58 0.29 -0.27 3.12 -2.55 0.3 -0.21 3.29 -2.27 0.27 -0.18 3.6 -2.13 0.27 -0.14 4.48 -2.27 0.23 -0.11 4.21 -1.85c1.43,-0.57 2.89,-1.14 4.34,-1.68 2.44,-0.86 4.79,-1.65 7.25,-2.45l0.09 -0.04 3.8 -1.13 0.09 -0.02c2.04,-0.57 4.06,-1.12 6.1,-1.65l0.04 -0.02 9.94 -2.48c-1.28,5.47 -2.53,10.91 -3.9,16.35l-0.04 0.11 -1.56 5.64 -0.04 0.14 -2.13 6.76 -2.06 5.67 -1.99 4.76 -0.11 0.22 -2.05 4.28 -0.13 0.25 -2.13 3.82 -0.16 0.27 -2.2 3.39 -0.2 0.29 -2.68 3.49 -3.15 3.4 -3.85 3.33 -3.96 2.68 -4.35 2.28 -4.47 1.76 -0.36 0.13 -3.33 1 -0.29 0.07 -4.11 0.95 -0.27 0.05 -4.61 0.78 -0.18 0.02 -3.81 0.48 -1.14 0.11 -0.29 9.51 -0.22 21.89 -0.04 48.75c-1.52,0.07 -3.04,0.11 -4.58,0.11 -1.52,0 -3.02,-0.04 -4.53,-0.1zm10.34 -91.7l-0.17 2.31 3.1 -0.39 -0 -0 4.48 -0.76 3.77 -0.87 3.09 -0.93 3.99 -1.57 3.3 -1.73 2.99 -2.02 3.25 -2.81 2.24 -2.42 2.49 -3.25 1.99 -3.07 2.01 -3.61 1.86 -3.88 -0 -0 1.99 -4.76 1.77 -4.88 2.13 -6.76 0 0 1.49 -5.39 -0.01 -0 0.38 -1.52 -1.16 0.32 0 0.01 -3.8 1.13 -0 -0.01 -3.35 1.08 -3.55 1.25 -3.79 1.47 -4.01 1.76 -4.22 2.13 -3.45 2.04 -2.81 1.94 -3.01 2.47 -2.08 2.02 -2.25 2.65 -1.87 2.73 -1.55 2.81 -1.25 2.84 -1.39 4.15 -1.01 4.17 -0.91 5.38 -0.67 5.96z"/>
  <circle class="fil0 str2" cx="106.09" cy="106.09" r="104.78"/>
  <circle class="fil3" cx="106.09" cy="48.97" r="13.1"/>
 </g>
</svg>
